<svg width="97" height="32" viewBox="0 0 97 32" fill="none" xmlns="http://www.w3.org/2000/svg"><path d="M0.263744 15.5964C0.793358 12.9338 2.10062 10.4881 4.02021 8.56854L11.7847 0.80404C12.8568 -0.268014 14.5949 -0.268013 15.667 0.804041L23.4315 8.56854C25.3511 10.4881 26.6583 12.9338 27.1879 15.5964C27.7175 18.2589 27.4457 21.0187 26.4069 23.5268C25.368 26.0349 23.6087 28.1786 21.3515 29.6868C19.0943 31.195 16.4405 32 13.7258 32C11.0111 32 8.35737 31.195 6.10017 29.6868C3.84297 28.1786 2.0837 26.0349 1.04482 23.5268C0.00594723 21.0187 -0.26587 18.2589 0.263744 15.5964Z" fill="url(#paint0_linear_2_139)"/><path d="M58.5117 9.06L54.4717 23H52.4317L49.1917 11.78L45.8317 23L43.8117 23.02L39.9117 9.06H41.8517L44.8917 20.88L48.2517 9.06H50.2917L53.4917 20.84L56.5517 9.06H58.5117ZM59.8234 17.48C59.8234 16.36 60.05 15.38 60.5034 14.54C60.9567 13.6867 61.5767 13.0267 62.3634 12.56C63.1634 12.0933 64.05 11.86 65.0234 11.86C65.9834 11.86 66.8167 12.0667 67.5234 12.48C68.23 12.8933 68.7567 13.4133 69.1034 14.04V12.04H70.9434V23H69.1034V20.96C68.7434 21.6 68.2034 22.1333 67.4834 22.56C66.7767 22.9733 65.95 23.18 65.0034 23.18C64.03 23.18 63.15 22.94 62.3634 22.46C61.5767 21.98 60.9567 21.3067 60.5034 20.44C60.05 19.5733 59.8234 18.5867 59.8234 17.48ZM69.1034 17.5C69.1034 16.6733 68.9367 15.9533 68.6034 15.34C68.27 14.7267 67.8167 14.26 67.2434 13.94C66.6834 13.6067 66.0634 13.44 65.3834 13.44C64.7034 13.44 64.0834 13.6 63.5234 13.92C62.9634 14.24 62.5167 14.7067 62.1834 15.32C61.85 15.9333 61.6834 16.6533 61.6834 17.48C61.6834 18.32 61.85 19.0533 62.1834 19.68C62.5167 20.2933 62.9634 20.7667 63.5234 21.1C64.0834 21.42 64.7034 21.58 65.3834 21.58C66.0634 21.58 66.6834 21.42 67.2434 21.1C67.8167 20.7667 68.27 20.2933 68.6034 19.68C68.9367 19.0533 69.1034 18.3267 69.1034 17.5ZM75.839 8.2V23H74.019V8.2H75.839ZM81.1609 13.54V20C81.1609 20.5333 81.2742 20.9133 81.5009 21.14C81.7275 21.3533 82.1209 21.46 82.6809 21.46H84.0209V23H82.3809C81.3675 23 80.6075 22.7667 80.1009 22.3C79.5942 21.8333 79.3409 21.0667 79.3409 20V13.54H77.9209V12.04H79.3409V9.28H81.1609V12.04H84.0209V13.54H81.1609ZM95.666 12.04L89.066 28.16H87.186L89.346 22.88L84.926 12.04H86.946L90.386 20.92L93.786 12.04H95.666Z" fill="white"/><defs><linearGradient id="paint0_linear_2_139" x1="0" y1="0" x2="31.6276" y2="27.1322" gradientUnits="userSpaceOnUse"><stop stop-color="#958CFF"/><stop offset="1" stop-color="#5445FF"/></linearGradient></defs></svg>